<?xml version="1.0" encoding="UTF-8" standalone="no"?>
<svg
   version="1.1"
   id="svg2"
   xml:space="preserve"
   width="120"
   height="120"
   viewBox="0 0 120 120"
   sodipodi:docname="project-logo.svg"
   inkscape:version="1.4 (e7c3feb100, 2024-10-09)"
   xmlns:inkscape="http://www.inkscape.org/namespaces/inkscape"
   xmlns:sodipodi="http://sodipodi.sourceforge.net/DTD/sodipodi-0.dtd"
   xmlns="http://www.w3.org/2000/svg"
   xmlns:svg="http://www.w3.org/2000/svg"
   xmlns:rdf="http://www.w3.org/1999/02/22-rdf-syntax-ns#"
   xmlns:cc="http://creativecommons.org/ns#"
   xmlns:dc="http://purl.org/dc/elements/1.1/"><metadata
     id="metadata8"><rdf:RDF><cc:Work
         rdf:about=""><dc:format>image/svg+xml</dc:format><dc:type
           rdf:resource="http://purl.org/dc/dcmitype/StillImage" /><dc:title /></cc:Work></rdf:RDF></metadata><defs
     id="defs6"><clipPath
       clipPathUnits="userSpaceOnUse"
       id="clipPath210"><path
         d="M 64.09713,512 H 447.9029 c 22.2879,0 30.3701,-2.3206 38.5182,-6.6783 8.1482,-4.3577 14.5429,-10.7524 18.9006,-18.9006 C 509.6794,478.273 512,470.1908 512,447.9029 V 64.09713 C 512,41.80916 509.6794,33.72701 505.3217,25.57886 500.964,17.43071 494.5693,11.03599 486.4211,6.678318 478.273,2.32064 470.1908,0 447.9029,0 H 64.09713 C 41.80916,0 33.72701,2.32064 25.57886,6.678318 17.43071,11.03599 11.03599,17.43071 6.678318,25.57886 2.32064,33.72701 0,41.80916 0,64.09713 V 447.9029 c 0,22.2879 2.32064,30.3701 6.678318,38.5182 4.357672,8.1482 10.752392,14.5429 18.900542,18.9006 8.14815,4.3577 16.2303,6.6783 38.51827,6.6783 z"
         clip-rule="evenodd"
         id="path208" /></clipPath><clipPath
       clipPathUnits="userSpaceOnUse"
       id="clipPath216"><path
         d="M 0,0 H 512 V 512 H 0 Z"
         id="path214" /></clipPath><clipPath
       clipPathUnits="userSpaceOnUse"
       id="clipPath226"><path
         d="M 310.6214,362 424.7089,162.0939 H 310.6961 l -57.0086,99.4988 z"
         clip-rule="evenodd"
         id="path224" /></clipPath><clipPath
       clipPathUnits="userSpaceOnUse"
       id="clipPath232"><path
         d="M 0,0 H 512 V 512 H 0 Z"
         id="path230" /></clipPath><clipPath
       clipPathUnits="userSpaceOnUse"
       id="clipPath242"><path
         d="M 197.1006,362 83.51535,162.0939 H 197.1006 L 310.6214,362 Z"
         clip-rule="evenodd"
         id="path240" /></clipPath><clipPath
       clipPathUnits="userSpaceOnUse"
       id="clipPath248"><path
         d="M 0,0 H 512 V 512 H 0 Z"
         id="path246" /></clipPath><clipPath
       clipPathUnits="userSpaceOnUse"
       id="clipPath253"><path
         d="M 64.09713,512 H 447.9029 c 22.2879,0 30.3701,-2.3206 38.5182,-6.6783 8.1482,-4.3577 14.5429,-10.7524 18.9006,-18.9006 C 509.6794,478.273 512,470.1908 512,447.9029 V 64.09713 C 512,41.80916 509.6794,33.72701 505.3217,25.57886 500.964,17.43071 494.5693,11.03599 486.4211,6.678318 478.273,2.32064 470.1908,0 447.9029,0 H 64.09713 C 41.80916,0 33.72701,2.32064 25.57886,6.678318 17.43071,11.03599 11.03599,17.43071 6.678318,25.57886 2.32064,33.72701 0,41.80916 0,64.09713 V 447.9029 c 0,22.2879 2.32064,30.3701 6.678318,38.5182 4.357672,8.1482 10.752392,14.5429 18.900542,18.9006 8.14815,4.3577 16.2303,6.6783 38.51827,6.6783 z"
         clip-rule="evenodd"
         id="path251" /></clipPath><clipPath
       clipPathUnits="userSpaceOnUse"
       id="clipPath257"><path
         d="M 0,0 H 512 V 512 H 0 Z"
         id="path255" /></clipPath><clipPath
       clipPathUnits="userSpaceOnUse"
       id="clipPath261"><path
         d="M 310.6214,362 424.7089,162.0939 H 310.6961 l -57.0086,99.4988 z"
         clip-rule="evenodd"
         id="path259" /></clipPath><clipPath
       clipPathUnits="userSpaceOnUse"
       id="clipPath265"><path
         d="M 0,0 H 512 V 512 H 0 Z"
         id="path263" /></clipPath><clipPath
       clipPathUnits="userSpaceOnUse"
       id="clipPath269"><path
         d="M 197.1006,362 83.51535,162.0939 H 197.1006 L 310.6214,362 Z"
         clip-rule="evenodd"
         id="path267" /></clipPath><clipPath
       clipPathUnits="userSpaceOnUse"
       id="clipPath273"><path
         d="M 0,0 H 512 V 512 H 0 Z"
         id="path271" /></clipPath><linearGradient
       id="linearGradient3475"
       y2="954.07001"
       gradientUnits="userSpaceOnUse"
       x2="319.73001"
       gradientTransform="matrix(0,1.6053,1.6053,0,-796.3554,25.3349)"
       y1="954.78003"
       x1="342.12"
       inkscape:collect="always"><stop
         id="stop3471"
         style="stop-color:#babdb6"
         offset="0" /><stop
         id="stop3477"
         style="stop-color:#eeeeec"
         offset=".28973" /><stop
         id="stop3479"
         style="stop-color:#babdb6"
         offset=".53973" /><stop
         id="stop3481"
         style="stop-color:#555753"
         offset=".75234" /><stop
         id="stop3473"
         style="stop-color:#eeeeec"
         offset="1" /></linearGradient><linearGradient
       id="linearGradient3408"
       y2="681.33002"
       spreadMethod="reflect"
       gradientUnits="userSpaceOnUse"
       x2="576.57001"
       gradientTransform="matrix(0,1,1,0,-95.9454,-20.3051)"
       y1="681.33002"
       x1="541.21997"
       inkscape:collect="always"><stop
         id="stop3412"
         style="stop-color:#888a85"
         offset="0" /><stop
         id="stop3414"
         style="stop-color:#888a85;stop-opacity:.49804"
         offset=".30906" /><stop
         id="stop3416"
         style="stop-color:#888a85;stop-opacity:0"
         offset="1" /></linearGradient><linearGradient
       id="linearGradient3396"
       y2="433.42001"
       spreadMethod="reflect"
       gradientUnits="userSpaceOnUse"
       x2="620.96002"
       gradientTransform="matrix(0,1,1,0,-214.3524,-64.3651)"
       y1="433.42001"
       x1="547.96997"
       inkscape:collect="always"><stop
         id="stop3392"
         style="stop-color:#888a85"
         offset="0" /><stop
         id="stop3398"
         style="stop-color:#888a85;stop-opacity:.49804"
         offset=".28078" /><stop
         id="stop3394"
         style="stop-color:#888a85;stop-opacity:0"
         offset="1" /></linearGradient><filter
       id="filter3554"
       height="1.2745205"
       width="1.0954975"
       y="-0.13726023"
       x="-0.047748743"
       inkscape:collect="always"><feGaussianBlur
         id="feGaussianBlur3556"
         stdDeviation="0.3923355"
         inkscape:collect="always" /></filter><linearGradient
       id="linearGradient3580"
       y2="257.14001"
       gradientUnits="userSpaceOnUse"
       x2="550.28998"
       y1="219.44"
       x1="502.84"
       inkscape:collect="always"
       gradientTransform="matrix(0.60068,0,0,1.2908183,240.3279,-141.67728)"><stop
         id="stop3576"
         style="stop-color:#d3d7cf"
         offset="0" /><stop
         id="stop3578"
         style="stop-color:#ffffff"
         offset="1" /></linearGradient><linearGradient
       id="linearGradient3672"
       y2="936.59998"
       gradientUnits="userSpaceOnUse"
       x2="334.03"
       gradientTransform="matrix(0,1,1,0,-226.5954,225.98845)"
       y1="955.69"
       x1="331.69"
       inkscape:collect="always"><stop
         id="stop3668"
         style="stop-color:#555753"
         offset="0" /><stop
         id="stop3670"
         style="stop-color:#555753;stop-opacity:0"
         offset="1" /></linearGradient></defs><sodipodi:namedview
     pagecolor="#ffffff"
     bordercolor="#666666"
     borderopacity="1"
     objecttolerance="10"
     gridtolerance="10"
     guidetolerance="10"
     inkscape:pageopacity="0"
     inkscape:pageshadow="2"
     inkscape:window-width="1920"
     inkscape:window-height="1164"
     id="namedview4"
     showgrid="false"
     inkscape:zoom="1.8897675"
     inkscape:cx="117.73935"
     inkscape:cy="184.41422"
     inkscape:window-x="0"
     inkscape:window-y="0"
     inkscape:window-maximized="1"
     inkscape:current-layer="g10"
     inkscape:document-rotation="0"
     inkscape:showpageshadow="2"
     inkscape:pagecheckerboard="0"
     inkscape:deskcolor="#d1d1d1" /><g
     id="g10"
     inkscape:groupmode="layer"
     inkscape:label="ink_ext_XXXXXX"
     transform="matrix(1.3333333,0,0,-1.3333333,0,120)"><g
       id="g1"
       transform="translate(0,-1.3646122)"><g
         id="g418"
         transform="matrix(0.09010301,0,0,0.09010301,21.933631,34.662595)"><g
           id="g340" /><g
           id="g348"><g
             id="g346"
             clip-path="url(#clipPath210)"><g
               id="g344"
               clip-path="url(#clipPath216)"><path
                 d="M -1,513 H 513 V -1 H -1 Z"
                 style="fill:#f6b102;fill-opacity:1;fill-rule:nonzero;stroke:none"
                 id="path342" /></g></g></g><g
           id="g356"><g
             id="g354"
             clip-path="url(#clipPath226)"><g
               id="g352"
               clip-path="url(#clipPath232)"><path
                 d="M 252.6875,363 H 425.7089 V 161.0939 H 252.6875 Z"
                 style="fill:#fdebbf;fill-opacity:1;fill-rule:nonzero;stroke:none"
                 id="path350" /></g></g></g><g
           id="g364"><g
             id="g362"
             clip-path="url(#clipPath242)"><g
               id="g360"
               clip-path="url(#clipPath248)"><path
                 d="M 82.51535,363 H 311.6214 V 161.0939 H 82.51535 Z"
                 style="fill:#ffffff;fill-opacity:1;fill-rule:nonzero;stroke:none"
                 id="path358" /></g></g></g><g
           id="g366" /><g
           id="g374"><g
             id="g372"
             clip-path="url(#clipPath210)"><g
               id="g370"
               clip-path="url(#clipPath216)"><path
                 d="M -1,513 H 513 V -1 H -1 Z"
                 style="fill:#f6b102;fill-opacity:1;fill-rule:nonzero;stroke:none"
                 id="path368" /></g></g></g><g
           id="g382"><g
             id="g380"
             clip-path="url(#clipPath226)"><g
               id="g378"
               clip-path="url(#clipPath232)"><path
                 d="M 252.6875,363 H 425.7089 V 161.0939 H 252.6875 Z"
                 style="fill:#fdebbf;fill-opacity:1;fill-rule:nonzero;stroke:none"
                 id="path376" /></g></g></g><g
           id="g390"><g
             id="g388"
             clip-path="url(#clipPath242)"><g
               id="g386"
               clip-path="url(#clipPath248)"><path
                 d="M 82.51535,363 H 311.6214 V 161.0939 H 82.51535 Z"
                 style="fill:#ffffff;fill-opacity:1;fill-rule:nonzero;stroke:none"
                 id="path384" /></g></g></g></g><g
         id="g41206"
         transform="matrix(0.08430348,0,0,-0.08430348,17.139793,65.009302)"><path
           d="m 671.6146,556.5649 c 0,8.17 6.95,11.54 15.57,11.54 l 55.13,6.42 c 8.63,0 15.57,-9.79 15.57,-17.96 0,-8.18 -6.94,-17.97 -15.57,-17.97 l -55.13,6.42 c -8.62,0 -15.57,3.37 -15.57,11.55 z"
           style="fill:url(#linearGradient3475)"
           sodipodi:nodetypes="cccsccc"
           id="rect2610"
           inkscape:connector-curvature="0" /><path
           d="m 452.7246,521.5549 v 70.71 l 267.33,-20 v -30.71 z"
           style="fill:#3465a4"
           sodipodi:nodetypes="ccccc"
           id="rect2605"
           inkscape:connector-curvature="0" /><path
           d="m 451.7146,520.9149 v 70.71 l 267.33,-20 v -30.71 z"
           style="fill:url(#linearGradient3408)"
           sodipodi:nodetypes="ccccc"
           id="path3400"
           inkscape:connector-curvature="0" /><path
           d="m -97.8954,534.2349 c 4.46,-10.24 14.56,-22.7 35.71,-36.1 80.83,-10.62 145.73,-14.58 201.91,-14.53 155.31,0.16 137.94,31.11 312.09,37.41 1.78,1.77 1.19,5.69 2.29,7.72 l 36,15.43 c 0,0 45.04,5.41 45.43,12.41 0.32,8.81 -45.43,12.44 -45.43,12.44 l -36,15.4 c -1.1,2.04 -0.51,5.98 -2.29,7.75 -174.15,6.3 -156.78,37.26 -312.09,37.41 -56.18,0.06 -121.08,-3.9 -201.91,-14.53 -21.16,-13.4 -31.26,-25.89 -35.71,-36.13 z"
           style="fill:#eeeeec"
           sodipodi:nodetypes="ccscccccccsccc"
           id="rect2599"
           inkscape:connector-curvature="0" /><path
           d="m -97.6554,534.2349 c 4.46,-10.24 14.56,-22.7 35.72,-36.1 80.83,-10.62 145.73,-14.58 201.9,-14.53 155.31,0.16 137.94,31.11 312.1,37.41 1.77,1.77 1.18,5.69 2.28,7.72 l 36,15.43 c 0,0 45.04,5.41 45.44,12.41 0.31,8.81 -45.44,12.44 -45.44,12.44 l -36,15.4 c -1.1,2.04 -0.51,5.98 -2.28,7.75 -174.16,6.3 -156.79,37.26 -312.1,37.41 -56.17,0.06 -121.07,-3.9 -201.9,-14.53 -21.17,-13.4 -31.27,-25.89 -35.72,-36.13 z"
           style="opacity:0.71127;fill:url(#linearGradient3396)"
           sodipodi:nodetypes="ccscccccccsccc"
           id="path2618"
           inkscape:connector-curvature="0" /><path
           d="m -47.2354,553.6349 v 6 c 0,15.51 12.49,28 28,28 h 193 c 15.51,0 82,-12.49 82,-28 v -6 c 0,-15.51 -66.49,-28 -82,-28 h -193 c -15.51,0 -28,12.49 -28,28 z"
           style="fill:#3465a4"
           sodipodi:nodetypes="ccccccccc"
           id="rect2613"
           inkscape:connector-curvature="0" /><ellipse
           transform="matrix(0,1,1,0,0,0)"
           ry="50.50016"
           rx="23.50016"
           cy="168.26816"
           cx="557.13715"
           style="fill:#d3d7cf"
           id="path2616" /><path
           d="m 321.36,960.99 -0.22,1.24 c 0,3.12 5.39,5.62 9.87,5.62 4.49,0 9.85,-2.5 9.85,-5.62 l -0.16,-0.95 h -0.2 -16.8 c -0.83,0 -1.62,-0.1 -2.34,-0.29 z"
           transform="matrix(0,1.6053,1.6053,0,-796.3554,25.3349)"
           style="opacity:0.54225;fill:#555753;filter:url(#filter3554)"
           id="path3483"
           inkscape:connector-curvature="0" /><ellipse
           transform="matrix(0,1,1,0,0,0)"
           ry="41.306183"
           rx="19.22176"
           cy="169.87744"
           cx="556.88629"
           style="fill:url(#linearGradient3580);stroke:#babdb6;stroke-width:1.64126;stroke-linecap:round;stroke-linejoin:round"
           id="path3572" /><rect
           style="opacity:0.891;fill:#a34545;fill-opacity:1;stroke:#a34545;stroke-width:1.74279;stroke-linecap:round;stroke-linejoin:round;stroke-miterlimit:4;stroke-dasharray:none;stroke-opacity:0.956863"
           id="rect41087"
           width="5.9725447"
           height="36.573029"
           x="178.20093"
           y="538.44397"
           ry="1.5730331" /><path
           d="m 700.2746,540.8549 19.46,1.47 v 30.72 l -19.46,1.47 z"
           style="fill:url(#linearGradient3672)"
           id="path3657"
           inkscape:connector-curvature="0" /><g
           id="text41067"
           style="font-style:normal;font-weight:normal;font-size:35.9538px;line-height:125%;font-family:sans-serif;letter-spacing:0px;word-spacing:0px;fill:#ffffff;fill-opacity:1;stroke:none;stroke-width:1px;stroke-linecap:butt;stroke-linejoin:miter;stroke-opacity:1"
           transform="scale(1.0087304,0.9913452)"><path
             id="path41129"
             style="font-style:normal;font-variant:normal;font-weight:normal;font-stretch:normal;font-size:12.3591px;font-family:'Sinhala Sangam MN';-inkscape-font-specification:'Sinhala Sangam MN';fill:#ffffff;fill-opacity:1"
             d="m -24.717997,542.37959 h 3.542948 q 0.675632,0 1.202955,0.23894 0.527322,0.23894 0.881617,0.61796 0.362534,0.37901 0.543801,0.8569 0.189507,0.46964 0.189507,0.94753 0,0.51084 -0.189507,0.99697 -0.181267,0.47788 -0.543801,0.8569 -0.354295,0.37077 -0.881617,0.60147 -0.527323,0.22247 -1.202955,0.22247 h -2.545979 v 4.00435 h -0.996969 z m 0.996969,4.45752 h 2.545979 q 0.362534,0 0.692111,-0.14007 0.329576,-0.14007 0.576759,-0.38725 0.247182,-0.24718 0.395492,-0.57676 0.148309,-0.32958 0.148309,-0.70859 0,-0.37077 -0.14007,-0.69211 -0.14007,-0.32134 -0.387252,-0.55204 -0.238943,-0.2307 -0.56852,-0.36254 -0.329576,-0.13183 -0.716829,-0.13183 h -2.545979 z"
             inkscape:connector-curvature="0" /><path
             id="path41131"
             style="font-style:normal;font-variant:normal;font-weight:normal;font-stretch:normal;font-size:12.3591px;font-family:'Sinhala Sangam MN';-inkscape-font-specification:'Sinhala Sangam MN';fill:#ffffff;fill-opacity:1"
             d="m -17.010605,545.0162 h 0.980491 l -0.0412,1.02169 q 0.313098,-0.56028 0.733308,-0.84866 0.42845,-0.29662 0.996969,-0.29662 0.107113,0 0.230704,0.0247 0.13183,0.0165 0.230703,0.0577 v 1.01345 q -0.321337,-0.11535 -0.486125,-0.11535 -0.395492,0 -0.70859,0.14831 -0.304858,0.14831 -0.519083,0.40373 -0.214224,0.24718 -0.329576,0.57676 -0.107112,0.32134 -0.107112,0.67563 v 4.04555 h -0.980491 v -6.70688 z"
             inkscape:connector-curvature="0" /><path
             id="path41133"
             style="font-style:normal;font-variant:normal;font-weight:normal;font-stretch:normal;font-size:12.3591px;font-family:'Sinhala Sangam MN';-inkscape-font-specification:'Sinhala Sangam MN';fill:#ffffff;fill-opacity:1"
             d="m -12.016555,548.55091 q 0.0082,0.46965 0.164788,0.91457 0.156549,0.43669 0.42845,0.77451 0.271901,0.33782 0.642674,0.5438 0.370774,0.20599 0.7992233,0.20599 1.4501368,0 1.9197834,-1.34303 h 0.9063354 q -0.1153517,0.52732 -0.3872524,0.93929 -0.2636612,0.40374 -0.6426743,0.69212 -0.379013,0.28014 -0.8404201,0.42844 -0.4614072,0.14831 -0.955772,0.14831 -0.7085893,0 -1.2771093,-0.28838 -0.56028,-0.28837 -0.964011,-0.7745 -0.403731,-0.49437 -0.617956,-1.14528 -0.214225,-0.65091 -0.214225,-1.37598 0,-0.67563 0.214225,-1.28535 0.214225,-0.61796 0.609716,-1.07936 0.403732,-0.46141 0.964012,-0.73331 0.568519,-0.28014 1.2771089,-0.28014 0.6756319,0 1.2276726,0.24718 0.5520407,0.24718 0.9310537,0.68387 0.3872525,0.43669 0.5932378,1.03817 0.2142248,0.59324 0.2142248,1.29359 v 0.39549 z m 3.9713975,-0.76627 q -0.016479,-0.42845 -0.1647883,-0.79098 -0.14007,-0.37077 -0.4037313,-0.64267 -0.2554218,-0.2719 -0.6261954,-0.42021 -0.3625342,-0.15655 -0.8157015,-0.15655 -0.420211,0 -0.774505,0.16479 -0.354295,0.16478 -0.617956,0.44492 -0.255422,0.28014 -0.411971,0.64268 -0.148309,0.36253 -0.156549,0.75802 z"
             inkscape:connector-curvature="0" /><path
             id="path41135"
             style="font-style:normal;font-variant:normal;font-weight:normal;font-stretch:normal;font-size:12.3591px;font-family:'Sinhala Sangam MN';-inkscape-font-specification:'Sinhala Sangam MN';fill:#ffffff;fill-opacity:1"
             d="m -0.04430128,551.88787 q 0,0.69211 -0.238943,1.21943 -0.23894299,0.52733 -0.63443484,0.88162 -0.39549188,0.3543 -0.90633548,0.53556 -0.5108437,0.18127 -1.054645,0.18127 -0.9475325,0 -1.6561221,-0.48612 -0.7003501,-0.48613 -1.0711237,-1.55725 h 0.996969 q 0.2719006,0.61795 0.6921107,0.88985 0.4284495,0.2719 1.0381661,0.2719 0.3707737,0 0.7003502,-0.14007 0.337816,-0.14007 0.5849984,-0.39549 0.2554218,-0.24718 0.3954918,-0.59324 0.1483095,-0.34605 0.1483095,-0.75802 v -1.17 q -0.3460554,0.5438 -0.8486596,0.82394 -0.4943649,0.28014 -1.0134479,0.28014 -0.6838713,0 -1.2276726,-0.2719 -0.5438013,-0.28014 -0.9310538,-0.75802 -0.379013,-0.47789 -0.5849983,-1.11232 -0.2059854,-0.64268 -0.2059854,-1.36775 0,-0.72507 0.197746,-1.35126 0.2059853,-0.63444 0.5767589,-1.10408 0.379013,-0.46965 0.9063355,-0.74155 0.5273225,-0.2719 1.1782361,-0.2719 0.2224642,0 0.477886,0.0494 0.2554219,0.0494 0.5108437,0.17302 0.2554218,0.1236 0.5026042,0.32958 0.2471824,0.20599 0.4614072,0.52732 v -0.95577 h 1.00520842 v 6.87167 z m -1.00520842,-3.60886 q -0.00824,-0.51908 -0.1400701,-0.97225 -0.1235912,-0.46141 -0.3542948,-0.79923 -0.2307035,-0.33781 -0.5685195,-0.53556 -0.3295765,-0.19774 -0.7497866,-0.19774 -0.4366889,0 -0.8074626,0.20598 -0.3707736,0.19775 -0.6426742,0.55204 -0.2636613,0.34606 -0.4202101,0.8157 -0.1483095,0.46965 -0.1483095,1.01345 0,0.5438 0.1483095,1.02169 0.1565488,0.47789 0.4202101,0.84042 0.2719006,0.3543 0.6426742,0.56028 0.3707737,0.20599 0.8074626,0.20599 0.4284495,0 0.7662654,-0.20599 0.337816,-0.20598 0.5685196,-0.55204 0.238943,-0.3543 0.3542948,-0.82394 0.1235912,-0.47789 0.1235912,-1.02169 z"
             inkscape:connector-curvature="0" /><path
             id="path41137"
             style="font-style:normal;font-variant:normal;font-weight:normal;font-stretch:normal;font-size:12.3591px;font-family:'Sinhala Sangam MN';-inkscape-font-specification:'Sinhala Sangam MN';fill:#ffffff;fill-opacity:1"
             d="m 1.4073807,545.0162 h 0.9969691 v 1.01345 q 0.519083,-0.60148 1.1205602,-0.86514 0.6097166,-0.2719 1.2441515,-0.2719 0.955772,0 1.4830944,0.53556 0.5273225,0.53556 0.5273225,1.47486 v 4.82005 H 5.7989882 v -4.69646 q 0,-0.69211 -0.3295766,-0.97225 -0.3213371,-0.28014 -0.8898566,-0.28014 -0.4531678,0 -0.8486596,0.16479 -0.3954919,0.15654 -0.6921108,0.42021 -0.2966189,0.26366 -0.4696465,0.60971 -0.1647883,0.34606 -0.1647883,0.71683 v 4.03731 H 1.4073807 Z"
             inkscape:connector-curvature="0" /><path
             id="path41139"
             style="font-style:normal;font-variant:normal;font-weight:normal;font-stretch:normal;font-size:12.3591px;font-family:'Sinhala Sangam MN';-inkscape-font-specification:'Sinhala Sangam MN';fill:#ffffff;fill-opacity:1"
             d="m 13.933285,551.80548 q -0.09063,0.033 -0.181267,0.0412 -0.08239,0.008 -0.181267,0.008 -0.42021,0 -0.70035,-0.31309 -0.28014,-0.3131 -0.321337,-0.98049 -0.321337,0.42021 -0.634435,0.67563 -0.304858,0.24718 -0.617956,0.38725 -0.304858,0.14007 -0.617956,0.18127 -0.313098,0.0494 -0.634435,0.0494 -0.4119705,0 -0.7745047,-0.13183 -0.3625342,-0.13183 -0.6344349,-0.37901 -0.2636612,-0.24718 -0.42021,-0.59324 -0.1483095,-0.35429 -0.1483095,-0.78274 0,-0.42845 0.1895065,-0.73331 0.1895065,-0.30486 0.4943648,-0.51908 0.3130977,-0.22247 0.7003502,-0.37078 0.3954918,-0.15654 0.8074626,-0.2719 0.411971,-0.12359 0.799223,-0.22246 0.395492,-0.10711 0.70035,-0.23894 0.313098,-0.13183 0.502604,-0.30486 0.189507,-0.17303 0.189507,-0.42845 0,-0.59324 -0.42021,-0.84866 -0.42021,-0.25542 -1.194715,-0.25542 -0.296619,0 -0.56852,0.0577 -0.263661,0.0577 -0.4696462,0.18127 -0.2059854,0.12359 -0.3460554,0.32134 -0.1318306,0.19774 -0.1730277,0.47788 H 8.2398506 q 0.032958,-0.49436 0.2719006,-0.8569 0.2471824,-0.36253 0.6179561,-0.59323 0.3707736,-0.23895 0.8239413,-0.3543 0.4531674,-0.11535 0.9063354,-0.11535 0.494365,0 0.964011,0.10711 0.469647,0.10711 0.823942,0.34606 0.362534,0.23894 0.576759,0.61795 0.222464,0.37902 0.222464,0.91458 v 3.53471 q 0,0.10711 0.03296,0.21422 0.0412,0.0989 0.107112,0.18127 0.07415,0.0824 0.156549,0.13183 0.09063,0.0494 0.189506,0.0494 v 0.8157 z m -1.483094,-3.87253 q -0.205985,0.21423 -0.543801,0.36254 -0.329577,0.14007 -0.70859,0.25542 -0.370774,0.11535 -0.758026,0.22246 -0.387252,0.10712 -0.7003501,0.25543 -0.3048583,0.1483 -0.5026043,0.36253 -0.1895065,0.20598 -0.1895065,0.52732 0,0.28838 0.098873,0.49437 0.098873,0.19774 0.2636612,0.32957 0.1647883,0.13183 0.3707736,0.18951 0.2059854,0.0577 0.4202101,0.0577 0.617956,0 1.211194,-0.37078 0.593238,-0.37901 1.038166,-1.15352 v -1.53253 z"
             inkscape:connector-curvature="0" /><path
             id="path41141"
             style="font-style:normal;font-variant:normal;font-weight:normal;font-stretch:normal;font-size:12.3591px;font-family:'Sinhala Sangam MN';-inkscape-font-specification:'Sinhala Sangam MN';fill:#ffffff;fill-opacity:1"
             d="m 15.142418,545.0162 h 0.996969 v 1.01345 q 0.519083,-0.60148 1.12056,-0.86514 0.609716,-0.2719 1.244151,-0.2719 0.955772,0 1.483095,0.53556 0.527322,0.53556 0.527322,1.47486 v 4.82005 h -0.98049 v -4.69646 q 0,-0.69211 -0.329577,-0.97225 -0.321337,-0.28014 -0.889856,-0.28014 -0.453168,0 -0.84866,0.16479 -0.395492,0.15654 -0.692111,0.42021 -0.296618,0.26366 -0.469646,0.60971 -0.164788,0.34606 -0.164788,0.71683 v 4.03731 h -0.996969 z"
             inkscape:connector-curvature="0" /><path
             id="path41143"
             style="font-style:normal;font-variant:normal;font-weight:normal;font-stretch:normal;font-size:12.3591px;font-family:'Sinhala Sangam MN';-inkscape-font-specification:'Sinhala Sangam MN';fill:#ffffff;fill-opacity:1"
             d="m 26.399454,547.07605 q -0.205985,-0.71682 -0.609716,-1.0052 -0.403731,-0.29662 -1.054645,-0.29662 -0.461407,0 -0.823941,0.20598 -0.362535,0.19775 -0.617956,0.53556 -0.247183,0.33782 -0.379014,0.79099 -0.13183,0.45317 -0.13183,0.94753 0,0.51908 0.13183,1.01345 0.131831,0.48612 0.379014,0.87338 0.255421,0.37901 0.609716,0.61795 0.362534,0.23071 0.807463,0.23071 0.362534,0 0.642674,-0.1236 0.288379,-0.13183 0.494365,-0.35429 0.205985,-0.22246 0.337816,-0.51084 0.13183,-0.29662 0.197746,-0.63444 h 1.087602 q -0.07416,0.585 -0.304858,1.05465 -0.222464,0.4614 -0.584998,0.78274 -0.354295,0.32134 -0.840421,0.49437 -0.477886,0.17302 -1.071123,0.17302 -0.749787,0 -1.293588,-0.32133 -0.535562,-0.32134 -0.889857,-0.83218 -0.346055,-0.51909 -0.519083,-1.16176 -0.164788,-0.65092 -0.164788,-1.30183 0,-0.70859 0.205985,-1.31831 0.214225,-0.61795 0.593238,-1.07112 0.387252,-0.45317 0.931054,-0.70859 0.543801,-0.26366 1.219433,-0.26366 0.584998,0 1.046405,0.16479 0.461407,0.16479 0.790984,0.46141 0.337816,0.28837 0.552041,0.69211 0.214224,0.39549 0.313097,0.86513 z"
             inkscape:connector-curvature="0" /><path
             id="path41145"
             style="font-style:normal;font-variant:normal;font-weight:normal;font-stretch:normal;font-size:12.3591px;font-family:'Sinhala Sangam MN';-inkscape-font-specification:'Sinhala Sangam MN';fill:#ffffff;fill-opacity:1"
             d="m 31.19563,550.48717 1.886825,-5.47097 h 1.038166 l -2.883794,8.18998 q -0.14007,0.39549 -0.329577,0.66739 -0.181267,0.28014 -0.387252,0.44493 -0.205986,0.17303 -0.42021,0.24718 -0.214225,0.0824 -0.411971,0.0824 -0.181267,0 -0.354295,-0.0247 -0.173028,-0.0247 -0.370774,-0.0906 v -0.86513 q 0.09887,0.0412 0.263662,0.0824 0.164788,0.0494 0.329576,0.0494 0.173028,0 0.313098,-0.1236 0.148309,-0.12359 0.28014,-0.37077 0.131831,-0.24718 0.263661,-0.62619 0.14007,-0.37078 0.304859,-0.87338 l -2.513022,-6.78928 h 1.087603 l 1.903305,5.47097 z"
             inkscape:connector-curvature="0" /><path
             id="path41147"
             style="font-style:normal;font-variant:normal;font-weight:normal;font-stretch:normal;font-size:12.3591px;font-family:'Sinhala Sangam MN';-inkscape-font-specification:'Sinhala Sangam MN';fill:#ffffff;fill-opacity:1"
             d="m 44.99375,542.37959 v 0.90633 h -3.089781 v 8.43716 H 40.907 v -8.43716 h -3.08978 v -0.90633 z"
             inkscape:connector-curvature="0" /><path
             id="path41149"
             style="font-style:normal;font-variant:normal;font-weight:normal;font-stretch:normal;font-size:12.3591px;font-family:'Sinhala Sangam MN';-inkscape-font-specification:'Sinhala Sangam MN';fill:#ffffff;fill-opacity:1"
             d="m 47.003076,548.55091 q 0.0082,0.46965 0.164788,0.91457 0.156549,0.43669 0.428449,0.77451 0.271901,0.33782 0.642675,0.5438 0.370773,0.20599 0.799223,0.20599 1.450137,0 1.919783,-1.34303 h 0.906336 q -0.115352,0.52732 -0.387253,0.93929 -0.263661,0.40374 -0.642674,0.69212 -0.379013,0.28014 -0.84042,0.42844 -0.461407,0.14831 -0.955772,0.14831 -0.70859,0 -1.277109,-0.28838 -0.560281,-0.28837 -0.964012,-0.7745 -0.403731,-0.49437 -0.617956,-1.14528 -0.214225,-0.65091 -0.214225,-1.37598 0,-0.67563 0.214225,-1.28535 0.214225,-0.61796 0.609717,-1.07936 0.403731,-0.46141 0.964011,-0.73331 0.56852,-0.28014 1.277109,-0.28014 0.675632,0 1.227673,0.24718 0.552041,0.24718 0.931054,0.68387 0.387252,0.43669 0.593237,1.03817 0.214225,0.59324 0.214225,1.29359 v 0.39549 z m 3.971397,-0.76627 q -0.01648,-0.42845 -0.164788,-0.79098 -0.14007,-0.37077 -0.403732,-0.64267 -0.255421,-0.2719 -0.626195,-0.42021 -0.362534,-0.15655 -0.815702,-0.15655 -0.42021,0 -0.774505,0.16479 -0.354295,0.16478 -0.617956,0.44492 -0.255422,0.28014 -0.411971,0.64268 -0.148309,0.36253 -0.156548,0.75802 z"
             inkscape:connector-curvature="0" /><path
             id="path41151"
             style="font-style:normal;font-variant:normal;font-weight:normal;font-stretch:normal;font-size:12.3591px;font-family:'Sinhala Sangam MN';-inkscape-font-specification:'Sinhala Sangam MN';fill:#ffffff;fill-opacity:1"
             d="m 54.188226,549.64675 q 0.0082,0.37077 0.123591,0.6262 0.123591,0.25542 0.329577,0.42021 0.205985,0.15655 0.486125,0.2307 0.28014,0.0659 0.609717,0.0659 0.2719,0 0.56028,-0.0494 0.296619,-0.0494 0.543801,-0.16479 0.247183,-0.12359 0.403731,-0.32958 0.164789,-0.20598 0.164789,-0.51908 0,-0.28838 -0.173028,-0.48612 -0.173028,-0.20599 -0.453168,-0.3543 -0.28014,-0.15655 -0.642674,-0.28014 -0.354295,-0.12359 -0.733308,-0.25542 -0.379013,-0.13183 -0.741547,-0.28838 -0.354295,-0.16479 -0.634435,-0.38725 -0.28014,-0.22247 -0.453168,-0.51909 -0.173027,-0.30485 -0.173027,-0.72506 0,-0.44493 0.189506,-0.76627 0.197746,-0.32958 0.519083,-0.5438 0.329577,-0.22247 0.749787,-0.32134 0.42021,-0.10711 0.873378,-0.10711 0.519083,0 0.955772,0.10711 0.444928,0.10711 0.774505,0.33782 0.329576,0.22246 0.519083,0.56852 0.197746,0.34605 0.222464,0.82394 -0.123591,0 -0.28014,-0.008 -0.14831,-0.008 -0.247183,-0.008 h -0.477886 q -0.03296,-0.2719 -0.164788,-0.45317 -0.123591,-0.18126 -0.321337,-0.28838 -0.189506,-0.10711 -0.444928,-0.14831 -0.255422,-0.0494 -0.535562,-0.0494 -0.650914,0 -0.996969,0.23894 -0.346056,0.23894 -0.346056,0.63443 0,0.26367 0.173028,0.46141 0.173028,0.18951 0.453168,0.34606 0.288379,0.14831 0.642674,0.28014 0.362534,0.12359 0.741547,0.26366 0.379013,0.14007 0.733308,0.29662 0.362534,0.15655 0.642674,0.37077 0.28838,0.21423 0.461408,0.49437 0.173027,0.28014 0.173027,0.65915 0,0.5438 -0.222464,0.93105 -0.214225,0.38726 -0.584998,0.63444 -0.362535,0.24718 -0.84866,0.35429 -0.486125,0.11535 -1.021687,0.11535 -0.519083,0 -0.98049,-0.13183 -0.453168,-0.14007 -0.807463,-0.41197 -0.346055,-0.28014 -0.56028,-0.69211 -0.214225,-0.41197 -0.230704,-0.97225 h 1.029927 z"
             inkscape:connector-curvature="0" /><path
             id="path41153"
             style="font-style:normal;font-variant:normal;font-weight:normal;font-stretch:normal;font-size:12.3591px;font-family:'Sinhala Sangam MN';-inkscape-font-specification:'Sinhala Sangam MN';fill:#ffffff;fill-opacity:1"
             d="m 61.539074,543.01402 v 2.00218 h 1.038166 v 0.84866 h -1.038166 v 4.35041 q 0,0.44493 0.205985,0.60972 0.205986,0.16479 0.535562,0.16479 0.09887,0 0.205986,-0.008 0.115351,-0.008 0.255421,-0.0412 v 0.80746 q -0.181267,0.0494 -0.403731,0.0742 -0.222464,0.033 -0.444928,0.033 -0.271901,0 -0.519083,-0.0742 -0.238943,-0.0659 -0.42845,-0.21423 -0.181267,-0.15654 -0.296619,-0.40373 -0.107112,-0.24718 -0.107112,-0.60147 v -4.69647 h -1.038166 v -0.84866 h 1.038166 v -2.00218 h 0.996969 z"
             inkscape:connector-curvature="0" /><path
             id="path41155"
             style="font-style:normal;font-variant:normal;font-weight:normal;font-stretch:normal;font-size:12.3591px;font-family:'Sinhala Sangam MN';-inkscape-font-specification:'Sinhala Sangam MN';fill:#ffffff;fill-opacity:1"
             d="m 64.81759,548.55091 q 0.0082,0.46965 0.164788,0.91457 0.156549,0.43669 0.42845,0.77451 0.2719,0.33782 0.642674,0.5438 0.370773,0.20599 0.799223,0.20599 1.450137,0 1.919783,-1.34303 h 0.906336 q -0.115352,0.52732 -0.387253,0.93929 -0.263661,0.40374 -0.642674,0.69212 -0.379013,0.28014 -0.84042,0.42844 -0.461407,0.14831 -0.955772,0.14831 -0.70859,0 -1.277109,-0.28838 -0.56028,-0.28837 -0.964012,-0.7745 -0.403731,-0.49437 -0.617956,-1.14528 -0.214224,-0.65091 -0.214224,-1.37598 0,-0.67563 0.214224,-1.28535 0.214225,-0.61796 0.609717,-1.07936 0.403731,-0.46141 0.964011,-0.73331 0.56852,-0.28014 1.277109,-0.28014 0.675632,0 1.227673,0.24718 0.552041,0.24718 0.931054,0.68387 0.387252,0.43669 0.593238,1.03817 0.214224,0.59324 0.214224,1.29359 v 0.39549 z m 3.971397,-0.76627 q -0.01648,-0.42845 -0.164788,-0.79098 -0.14007,-0.37077 -0.403731,-0.64267 -0.255422,-0.2719 -0.626196,-0.42021 -0.362534,-0.15655 -0.815702,-0.15655 -0.42021,0 -0.774505,0.16479 -0.354295,0.16478 -0.617956,0.44492 -0.255422,0.28014 -0.41197,0.64268 -0.14831,0.36253 -0.156549,0.75802 z"
             inkscape:connector-curvature="0" /><path
             id="path41157"
             style="font-style:normal;font-variant:normal;font-weight:normal;font-stretch:normal;font-size:12.3591px;font-family:'Sinhala Sangam MN';-inkscape-font-specification:'Sinhala Sangam MN';fill:#ffffff;fill-opacity:1"
             d="m 71.096405,545.0162 h 0.98049 l -0.0412,1.02169 q 0.313098,-0.56028 0.733308,-0.84866 0.428449,-0.29662 0.996969,-0.29662 0.107112,0 0.230703,0.0247 0.131831,0.0165 0.230704,0.0577 v 1.01345 q -0.321337,-0.11535 -0.486126,-0.11535 -0.395491,0 -0.708589,0.14831 -0.304858,0.14831 -0.519083,0.40373 -0.214225,0.24718 -0.329577,0.57676 -0.107112,0.32134 -0.107112,0.67563 v 4.04555 h -0.98049 v -6.70688 z"
             inkscape:connector-curvature="0" /><path
             id="path41159"
             style="font-style:normal;font-variant:normal;font-weight:normal;font-stretch:normal;font-size:12.3591px;font-family:'Sinhala Sangam MN';-inkscape-font-specification:'Sinhala Sangam MN';fill:#ffffff;fill-opacity:1"
             d="m 78.486969,545.14803 q 0.09063,-0.51084 0.304859,-0.98049 0.214224,-0.46965 0.56028,-0.82394 0.354295,-0.36253 0.848659,-0.57676 0.502605,-0.21422 1.169997,-0.21422 0.617956,0 1.104081,0.18126 0.494365,0.17303 0.840421,0.48613 0.346055,0.30486 0.527322,0.73331 0.181267,0.42845 0.181267,0.93105 0,0.66739 -0.346055,1.19472 -0.337816,0.51908 -0.98049,0.8157 0.395492,0.14007 0.716829,0.34605 0.321337,0.20599 0.55204,0.49437 0.230704,0.28838 0.354295,0.65915 0.131831,0.37077 0.131831,0.84042 0,0.64267 -0.238943,1.13704 -0.238943,0.48613 -0.650914,0.8157 -0.403731,0.32958 -0.947532,0.50261 -0.543802,0.16478 -1.145279,0.16478 -1.293588,0 -2.134008,-0.7333 -0.832181,-0.74155 -1.12056,-2.08458 h 1.046405 q 0.107113,0.585 0.337816,0.97226 0.230704,0.38725 0.535562,0.62619 0.304858,0.2307 0.650914,0.32958 0.346055,0.0989 0.683871,0.0989 0.354295,0 0.70859,-0.12359 0.362534,-0.13183 0.642674,-0.37077 0.28014,-0.23895 0.453168,-0.57676 0.181267,-0.33782 0.181267,-0.75803 0,-0.39549 -0.14831,-0.74155 -0.14007,-0.35429 -0.41197,-0.60971 -0.271901,-0.25543 -0.659153,-0.40373 -0.387253,-0.14831 -0.865139,-0.14831 h -0.593238 v -0.87338 h 0.593238 q 0.461407,0 0.774505,-0.12359 0.321337,-0.13183 0.519083,-0.33782 0.197746,-0.21422 0.28014,-0.48612 0.09063,-0.2719 0.09063,-0.55205 0,-0.37077 -0.115352,-0.66739 -0.115352,-0.30486 -0.337816,-0.51084 -0.214225,-0.21423 -0.527323,-0.32958 -0.304858,-0.11535 -0.683871,-0.11535 -0.42021,0 -0.758026,0.15655 -0.329577,0.15655 -0.56852,0.42021 -0.230703,0.25542 -0.370773,0.585 -0.131831,0.32133 -0.173028,0.65091 h -1.013448 z"
             inkscape:connector-curvature="0" /><path
             id="path41161"
             style="font-style:normal;font-variant:normal;font-weight:normal;font-stretch:normal;font-size:12.3591px;font-family:'Sinhala Sangam MN';-inkscape-font-specification:'Sinhala Sangam MN';fill:#ffffff;fill-opacity:1"
             d="m 86.759272,547.13373 q 0,1.00521 0.164788,1.73028 0.164788,0.71683 0.453168,1.17823 0.296619,0.46141 0.683871,0.68387 0.387252,0.21423 0.832181,0.21423 0.444928,0 0.832181,-0.21423 0.387252,-0.22246 0.675631,-0.68387 0.296619,-0.4614 0.461408,-1.17823 0.164788,-0.72507 0.164788,-1.73028 0,-1.00521 -0.164788,-1.73028 -0.164789,-0.72507 -0.461408,-1.18647 -0.288379,-0.46965 -0.675631,-0.68387 -0.387253,-0.22247 -0.832181,-0.22247 -0.444929,0 -0.832181,0.22247 -0.387252,0.21422 -0.683871,0.68387 -0.28838,0.4614 -0.453168,1.18647 -0.164788,0.72507 -0.164788,1.73028 z m 5.264985,0 q 0,1.06288 -0.205985,1.91154 -0.197746,0.84866 -0.593238,1.4419 -0.395492,0.59324 -0.98049,0.91458 -0.584999,0.32133 -1.351264,0.32133 -0.766266,0 -1.351264,-0.32133 -0.584998,-0.32134 -0.98049,-0.91458 -0.395492,-0.59324 -0.593238,-1.4419 -0.197746,-0.84866 -0.197746,-1.91154 0,-1.05464 0.197746,-1.9033 0.197746,-0.84866 0.593238,-1.4419 0.395492,-0.60148 0.98049,-0.92282 0.584998,-0.32133 1.351264,-0.32133 0.766265,0 1.351264,0.32133 0.584998,0.32134 0.98049,0.92282 0.395492,0.59324 0.593238,1.4419 0.205985,0.84866 0.205985,1.9033 z"
             inkscape:connector-curvature="0" /><path
             id="path41163"
             style="font-style:normal;font-variant:normal;font-weight:normal;font-stretch:normal;font-size:12.3591px;font-family:'Sinhala Sangam MN';-inkscape-font-specification:'Sinhala Sangam MN';fill:#ffffff;fill-opacity:1"
             d="m 94.314753,547.13373 q 0,1.00521 0.164788,1.73028 0.164788,0.71683 0.453168,1.17823 0.296618,0.46141 0.683871,0.68387 0.387252,0.21423 0.832181,0.21423 0.444928,0 0.83218,-0.21423 0.387253,-0.22246 0.675632,-0.68387 0.296619,-0.4614 0.461408,-1.17823 0.164788,-0.72507 0.164788,-1.73028 0,-1.00521 -0.164788,-1.73028 -0.164789,-0.72507 -0.461408,-1.18647 -0.288379,-0.46965 -0.675632,-0.68387 -0.387252,-0.22247 -0.83218,-0.22247 -0.444929,0 -0.832181,0.22247 -0.387253,0.21422 -0.683871,0.68387 -0.28838,0.4614 -0.453168,1.18647 -0.164788,0.72507 -0.164788,1.73028 z m 5.264985,0 q 0,1.06288 -0.205985,1.91154 -0.197746,0.84866 -0.593238,1.4419 -0.395492,0.59324 -0.98049,0.91458 -0.584999,0.32133 -1.351264,0.32133 -0.766266,0 -1.351264,-0.32133 -0.584998,-0.32134 -0.98049,-0.91458 -0.395492,-0.59324 -0.593238,-1.4419 -0.197746,-0.84866 -0.197746,-1.91154 0,-1.05464 0.197746,-1.9033 0.197746,-0.84866 0.593238,-1.4419 0.395492,-0.60148 0.98049,-0.92282 0.584998,-0.32133 1.351264,-0.32133 0.766265,0 1.351264,0.32133 0.584998,0.32134 0.98049,0.92282 0.395492,0.59324 0.593238,1.4419 0.205985,0.84866 0.205985,1.9033 z"
             inkscape:connector-curvature="0" /><path
             id="path41165"
             style="font-style:normal;font-variant:normal;font-weight:normal;font-stretch:normal;font-size:12.3591px;font-family:'Sinhala Sangam MN';-inkscape-font-specification:'Sinhala Sangam MN';fill:#ffffff;fill-opacity:1"
             d="m 101.87023,547.13373 q 0,1.00521 0.16479,1.73028 0.16479,0.71683 0.45317,1.17823 0.29662,0.46141 0.68387,0.68387 0.38725,0.21423 0.83218,0.21423 0.44493,0 0.83218,-0.21423 0.38725,-0.22246 0.67563,-0.68387 0.29662,-0.4614 0.46141,-1.17823 0.16479,-0.72507 0.16479,-1.73028 0,-1.00521 -0.16479,-1.73028 -0.16479,-0.72507 -0.46141,-1.18647 -0.28838,-0.46965 -0.67563,-0.68387 -0.38725,-0.22247 -0.83218,-0.22247 -0.44493,0 -0.83218,0.22247 -0.38725,0.21422 -0.68387,0.68387 -0.28838,0.4614 -0.45317,1.18647 -0.16479,0.72507 -0.16479,1.73028 z m 5.26499,0 q 0,1.06288 -0.20599,1.91154 -0.19774,0.84866 -0.59323,1.4419 -0.3955,0.59324 -0.98049,0.91458 -0.585,0.32133 -1.35127,0.32133 -0.76626,0 -1.35126,-0.32133 -0.585,-0.32134 -0.98049,-0.91458 -0.39549,-0.59324 -0.59324,-1.4419 -0.19775,-0.84866 -0.19775,-1.91154 0,-1.05464 0.19775,-1.9033 0.19775,-0.84866 0.59324,-1.4419 0.39549,-0.60148 0.98049,-0.92282 0.585,-0.32133 1.35126,-0.32133 0.76627,0 1.35127,0.32133 0.58499,0.32134 0.98049,0.92282 0.39549,0.59324 0.59323,1.4419 0.20599,0.84866 0.20599,1.9033 z"
             inkscape:connector-curvature="0" /></g><g
           id="text41071"
           style="font-style:normal;font-weight:normal;font-size:20.6407px;line-height:125%;font-family:sans-serif;letter-spacing:0px;word-spacing:0px;fill:#ffffff;fill-opacity:1;stroke:none;stroke-width:1px;stroke-linecap:butt;stroke-linejoin:miter;stroke-opacity:1"
           transform="scale(1.2078208,0.82793737)"><path
             id="path41168"
             style="font-style:normal;font-variant:normal;font-weight:normal;font-stretch:normal;font-size:7.09523px;font-family:'Sinhala Sangam MN';-inkscape-font-specification:'Sinhala Sangam MN';fill:#ffffff;fill-opacity:1"
             d="m -17.663028,688.73336 h 2.033966 q 0.387873,0 0.690603,0.13717 0.30273,0.13718 0.506126,0.35476 0.208127,0.21759 0.31219,0.49194 0.108794,0.26962 0.108794,0.54397 0,0.29327 -0.108794,0.57235 -0.104063,0.27434 -0.31219,0.49193 -0.203396,0.21286 -0.506126,0.3453 -0.30273,0.12772 -0.690603,0.12772 h -1.461617 v 2.29885 h -0.572349 z m 0.572349,2.55901 h 1.461617 q 0.208127,0 0.397333,-0.0804 0.189206,-0.0804 0.331111,-0.22232 0.141905,-0.1419 0.227047,-0.33111 0.08514,-0.18921 0.08514,-0.40679 0,-0.21286 -0.08041,-0.39734 -0.08041,-0.18447 -0.222317,-0.31692 -0.137174,-0.13244 -0.32638,-0.20812 -0.189206,-0.0757 -0.411524,-0.0757 h -1.461617 z"
             inkscape:connector-curvature="0" /><path
             id="path41170"
             style="font-style:normal;font-variant:normal;font-weight:normal;font-stretch:normal;font-size:7.09523px;font-family:'Sinhala Sangam MN';-inkscape-font-specification:'Sinhala Sangam MN';fill:#ffffff;fill-opacity:1"
             d="m -13.238302,690.24701 h 0.562889 l -0.02365,0.58654 q 0.179746,-0.32166 0.420983,-0.48721 0.245968,-0.17029 0.572349,-0.17029 0.06149,0 0.132444,0.0142 0.07568,0.009 0.132445,0.0331 v 0.5818 q -0.184476,-0.0662 -0.27908,-0.0662 -0.227047,0 -0.406793,0.0851 -0.175015,0.0851 -0.297999,0.23178 -0.122984,0.14191 -0.189207,0.33111 -0.06149,0.18448 -0.06149,0.38788 v 2.3225 H -13.2383 v -3.85034 z"
             inkscape:connector-curvature="0" /><path
             id="path41172"
             style="font-style:normal;font-variant:normal;font-weight:normal;font-stretch:normal;font-size:7.09523px;font-family:'Sinhala Sangam MN';-inkscape-font-specification:'Sinhala Sangam MN';fill:#ffffff;fill-opacity:1"
             d="m -10.371275,692.27624 q 0.0047,0.26962 0.0946,0.52505 0.08987,0.2507 0.245968,0.44463 0.1560954,0.19394 0.3689523,0.31219 0.2128569,0.11826 0.4588248,0.11826 0.832507,0 1.1021258,-0.77102 h 0.5203169 q -0.066222,0.30273 -0.2223172,0.53924 -0.151365,0.23178 -0.368952,0.39733 -0.2175871,0.16083 -0.4824757,0.24597 -0.2648885,0.0851 -0.5486978,0.0851 -0.4067931,0 -0.7331737,-0.16555 -0.3216504,-0.16556 -0.5534284,-0.44464 -0.231777,-0.28381 -0.354761,-0.65749 -0.122984,-0.37368 -0.122984,-0.78993 0,-0.38788 0.122984,-0.73791 0.122984,-0.35476 0.350031,-0.61965 0.231778,-0.26489 0.5534282,-0.42098 0.3263806,-0.16083 0.7331738,-0.16083 0.3878726,0 0.7047929,0.14191 0.3169202,0.1419 0.5345073,0.3926 0.2223172,0.2507 0.340571,0.596 0.122984,0.34057 0.122984,0.74263 v 0.22705 h -2.8664732 z m 2.2799342,-0.4399 q -0.00946,-0.24597 -0.094603,-0.4541 -0.080413,-0.21285 -0.2317775,-0.36895 -0.1466347,-0.15609 -0.3594916,-0.24124 -0.2081268,-0.0899 -0.4682852,-0.0899 -0.2412379,0 -0.4446345,0.0946 -0.2033965,0.0946 -0.3547614,0.25543 -0.146635,0.16083 -0.236508,0.36895 -0.08514,0.20813 -0.08987,0.43518 h 2.2799343 z"
             inkscape:connector-curvature="0" /><path
             id="path41174"
             style="font-style:normal;font-variant:normal;font-weight:normal;font-stretch:normal;font-size:7.09523px;font-family:'Sinhala Sangam MN';-inkscape-font-specification:'Sinhala Sangam MN';fill:#ffffff;fill-opacity:1"
             d="m -3.4981395,694.19195 q 0,0.39734 -0.1371744,0.70007 -0.1371745,0.30273 -0.3642218,0.50612 -0.2270474,0.2034 -0.5203169,0.30746 -0.2932695,0.10407 -0.6054596,0.10407 -0.5439677,0 -0.9507609,-0.27908 -0.402063,-0.27908 -0.6149199,-0.894 h 0.5723485 q 0.1560951,0.35476 0.3973329,0.51086 0.245968,0.15609 0.5959994,0.15609 0.2128569,0 0.402063,-0.0804 0.1939363,-0.0804 0.3358409,-0.22705 0.1466347,-0.1419 0.2270474,-0.34057 0.085143,-0.19867 0.085143,-0.43517 v -0.67169 q -0.1986664,0.31219 -0.4872058,0.47302 -0.2838092,0.16082 -0.5818089,0.16082 -0.3926027,0 -0.7047928,-0.15609 -0.3121901,-0.16083 -0.5345073,-0.43518 -0.2175871,-0.27434 -0.3358409,-0.63857 -0.1182539,-0.36895 -0.1182539,-0.7852 0,-0.41626 0.1135237,-0.77575 0.1182538,-0.36422 0.3311108,-0.63384 0.217587,-0.26962 0.5203168,-0.42571 0.3027298,-0.1561 0.676412,-0.1561 0.1277141,0 0.2743489,0.0284 0.1466347,0.0284 0.2932695,0.0993 0.1466347,0.071 0.2885393,0.1892 0.1419046,0.11826 0.2648886,0.30273 V 690.247 h 0.5770787 v 3.94494 z m -0.5770787,-2.0718 q -0.00473,-0.298 -0.080413,-0.55816 -0.070952,-0.26489 -0.2033966,-0.45883 -0.1324443,-0.19393 -0.3263806,-0.30746 -0.1892061,-0.11352 -0.4304439,-0.11352 -0.2506982,0 -0.4635551,0.11825 -0.2128569,0.11353 -0.3689519,0.31692 -0.1513649,0.19867 -0.2412379,0.46829 -0.085143,0.26962 -0.085143,0.58181 0,0.31219 0.085143,0.58654 0.089873,0.27435 0.2412379,0.48247 0.156095,0.2034 0.3689519,0.32165 0.2128569,0.11826 0.4635551,0.11826 0.2459679,0 0.4399042,-0.11826 0.1939363,-0.11825 0.3263806,-0.31692 0.1371745,-0.20339 0.2033966,-0.47301 0.070952,-0.27435 0.070952,-0.58654 v -0.0615 z"
             inkscape:connector-curvature="0" /><path
             id="path41176"
             style="font-style:normal;font-variant:normal;font-weight:normal;font-stretch:normal;font-size:7.09523px;font-family:'Sinhala Sangam MN';-inkscape-font-specification:'Sinhala Sangam MN';fill:#ffffff;fill-opacity:1"
             d="m -2.6647458,690.24701 h 0.5723486 v 0.58181 q 0.2979996,-0.34531 0.6433008,-0.49667 0.3500314,-0.1561 0.71425318,-0.1561 0.5486978,0 0.85142762,0.30746 0.30272981,0.30746 0.30272981,0.8467 v 2.76714 h -0.56288825 v -2.69619 q 0,-0.39733 -0.18920614,-0.55815 -0.18447598,-0.16083 -0.51085656,-0.16083 -0.26015846,0 -0.48720576,0.0946 -0.2270474,0.0899 -0.3973329,0.24124 -0.1702856,0.15137 -0.2696188,0.35003 -0.094603,0.19867 -0.094603,0.41153 v 2.31777 h -0.5723486 z"
             inkscape:connector-curvature="0" /><path
             id="path41178"
             style="font-style:normal;font-variant:normal;font-weight:normal;font-stretch:normal;font-size:7.09523px;font-family:'Sinhala Sangam MN';-inkscape-font-specification:'Sinhala Sangam MN';fill:#ffffff;fill-opacity:1"
             d="m 4.5262332,694.14465 q -0.052032,0.0189 -0.1040634,0.0237 -0.047301,0.005 -0.1040634,0.005 -0.2412378,0 -0.402063,-0.17974 -0.1608252,-0.17975 -0.184476,-0.56289 -0.184476,0.24124 -0.3642218,0.38787 -0.1750157,0.14191 -0.3547615,0.22232 -0.1750157,0.0804 -0.3547615,0.10406 -0.1797459,0.0284 -0.3642218,0.0284 -0.2365077,0 -0.4446345,-0.0757 -0.2081267,-0.0757 -0.3642218,-0.21759 -0.1513649,-0.1419 -0.2412378,-0.34057 -0.085143,-0.20339 -0.085143,-0.44936 0,-0.24597 0.1087936,-0.42099 0.1087935,-0.17501 0.2838092,-0.29799 0.1797458,-0.12772 0.402063,-0.21286 0.2270474,-0.0899 0.463555,-0.1561 0.2365077,-0.071 0.4588249,-0.12771 0.2270474,-0.0615 0.4020631,-0.13718 0.1797458,-0.0757 0.2885393,-0.17501 0.1087935,-0.0993 0.1087935,-0.24597 0,-0.34057 -0.2412378,-0.4872 -0.2412378,-0.14664 -0.6858722,-0.14664 -0.1702855,0 -0.3263806,0.0331 -0.1513649,0.0331 -0.2696187,0.10406 -0.1182539,0.071 -0.1986665,0.18448 -0.075682,0.11352 -0.099333,0.27435 H 1.2576972 q 0.018921,-0.28381 0.156095,-0.49194 0.1419046,-0.20812 0.3547615,-0.34057 0.2128569,-0.13717 0.4730154,-0.20339 0.2601584,-0.0662 0.5203168,-0.0662 0.2838092,0 0.553428,0.0615 0.2696187,0.0615 0.4730153,0.19866 0.2081268,0.13718 0.3311108,0.35476 0.1277141,0.21759 0.1277141,0.52505 v 2.02924 q 0,0.0615 0.018921,0.12298 0.023651,0.0568 0.061492,0.10406 0.042571,0.0473 0.089873,0.0757 0.052032,0.0284 0.1087936,0.0284 v 0.46828 z m -0.8514277,-2.22317 q -0.1182538,0.12298 -0.3121901,0.20813 -0.1892061,0.0804 -0.4067932,0.14663 -0.2128569,0.0662 -0.4351741,0.12772 -0.2223172,0.0615 -0.402063,0.14663 -0.1750157,0.0851 -0.2885394,0.20813 -0.1087935,0.11825 -0.1087935,0.30273 0,0.16555 0.056762,0.28381 0.056762,0.11352 0.1513649,0.1892 0.094603,0.0757 0.2128569,0.1088 0.1182539,0.0331 0.2412379,0.0331 0.3547615,0 0.6953325,-0.21286 0.3405711,-0.21759 0.5959993,-0.66222 v -0.87981 z"
             inkscape:connector-curvature="0" /><path
             id="path41180"
             style="font-style:normal;font-variant:normal;font-weight:normal;font-stretch:normal;font-size:7.09523px;font-family:'Sinhala Sangam MN';-inkscape-font-specification:'Sinhala Sangam MN';fill:#ffffff;fill-opacity:1"
             d="m 5.2203822,690.24701 h 0.5723486 v 0.58181 q 0.2979996,-0.34531 0.6433008,-0.49667 0.3500314,-0.1561 0.7142532,-0.1561 0.5486978,0 0.8514276,0.30746 0.3027298,0.30746 0.3027298,0.8467 v 2.76714 H 7.741554 v -2.69619 q 0,-0.39733 -0.1892062,-0.55815 -0.1844759,-0.16083 -0.5108565,-0.16083 -0.2601585,0 -0.4872058,0.0946 -0.2270474,0.0899 -0.3973329,0.24124 -0.1702855,0.15137 -0.2696188,0.35003 -0.094603,0.19867 -0.094603,0.41153 v 2.31777 H 5.2203822 Z"
             inkscape:connector-curvature="0" /><path
             id="path41182"
             style="font-style:normal;font-variant:normal;font-weight:normal;font-stretch:normal;font-size:7.09523px;font-family:'Sinhala Sangam MN';-inkscape-font-specification:'Sinhala Sangam MN';fill:#ffffff;fill-opacity:1"
             d="m 10.140888,689.09758 v 1.14943 h 0.595999 v 0.4872 h -0.595999 v 2.49752 q 0,0.25543 0.118253,0.35003 0.118254,0.0946 0.30746,0.0946 0.05676,0 0.118254,-0.005 0.06622,-0.005 0.146635,-0.0236 v 0.46355 q -0.104063,0.0284 -0.231778,0.0426 -0.127714,0.0189 -0.255428,0.0189 -0.156095,0 -0.298,-0.0426 -0.137174,-0.0378 -0.2459675,-0.12298 -0.1040634,-0.0899 -0.1702855,-0.23178 -0.061492,-0.1419 -0.061492,-0.3453 v -2.69619 H 8.9725397 v -0.4872 H 9.568539 v -1.14943 h 0.572349 z"
             inkscape:connector-curvature="0" /><path
             id="path41184"
             style="font-style:normal;font-variant:normal;font-weight:normal;font-stretch:normal;font-size:7.09523px;font-family:'Sinhala Sangam MN';-inkscape-font-specification:'Sinhala Sangam MN';fill:#ffffff;fill-opacity:1"
             d="m 33.882562,688.73336 2.729299,4.63555 v -4.63555 h 0.572348 v 5.36399 h -0.766285 l -2.729298,-4.63555 v 4.63555 h -0.572349 v -5.36399 z"
             inkscape:connector-curvature="0" /><path
             id="path41186"
             style="font-style:normal;font-variant:normal;font-weight:normal;font-stretch:normal;font-size:7.09523px;font-family:'Sinhala Sangam MN';-inkscape-font-specification:'Sinhala Sangam MN';fill:#ffffff;fill-opacity:1"
             d="m 37.937152,692.17691 q 0,-0.41152 0.113523,-0.77575 0.113524,-0.36422 0.335841,-0.63384 0.222317,-0.27435 0.543968,-0.43044 0.32638,-0.16083 0.747364,-0.16083 0.420984,0 0.747364,0.16083 0.331111,0.15609 0.553428,0.43044 0.227048,0.26962 0.340571,0.63384 0.118254,0.36423 0.118254,0.77575 0,0.41152 -0.118254,0.77574 -0.113523,0.3595 -0.340571,0.62911 -0.222317,0.26962 -0.553428,0.42572 -0.32638,0.15609 -0.747364,0.15609 -0.420984,0 -0.747364,-0.15609 -0.321651,-0.1561 -0.543968,-0.42572 -0.222317,-0.26961 -0.335841,-0.62911 -0.113523,-0.36422 -0.113523,-0.77574 z m 0.562888,0 q 0,0.30746 0.08041,0.57708 0.08041,0.26962 0.231778,0.47301 0.156095,0.2034 0.373682,0.32165 0.217587,0.11353 0.491936,0.11353 0.274349,0 0.491936,-0.11353 0.222317,-0.11825 0.373682,-0.32165 0.156095,-0.20339 0.236508,-0.47301 0.08514,-0.26962 0.08514,-0.57708 0,-0.30746 -0.08514,-0.57708 -0.08041,-0.27435 -0.236508,-0.47775 -0.151365,-0.20339 -0.373682,-0.32165 -0.217587,-0.11825 -0.491936,-0.11825 -0.274349,0 -0.491936,0.11825 -0.217587,0.11826 -0.373682,0.32165 -0.151365,0.2034 -0.231778,0.47775 -0.08041,0.26962 -0.08041,0.57708 z"
             inkscape:connector-curvature="0" /><path
             id="path41188"
             style="font-style:normal;font-variant:normal;font-weight:normal;font-stretch:normal;font-size:7.09523px;font-family:'Sinhala Sangam MN';-inkscape-font-specification:'Sinhala Sangam MN';fill:#ffffff;fill-opacity:1"
             d="m 43.219625,689.09758 v 1.14943 h 0.595999 v 0.4872 h -0.595999 v 2.49752 q 0,0.25543 0.118254,0.35003 0.118253,0.0946 0.30746,0.0946 0.05676,0 0.118253,-0.005 0.06622,-0.005 0.146635,-0.0236 v 0.46355 q -0.104063,0.0284 -0.231777,0.0426 -0.127714,0.0189 -0.255429,0.0189 -0.156095,0 -0.297999,-0.0426 -0.137175,-0.0378 -0.245968,-0.12298 -0.104064,-0.0899 -0.170286,-0.23178 -0.06149,-0.1419 -0.06149,-0.3453 v -2.69619 h -0.595999 v -0.4872 h 0.595999 v -1.14943 h 0.572349 z"
             inkscape:connector-curvature="0" /><path
             id="path41190"
             style="font-style:normal;font-variant:normal;font-weight:normal;font-stretch:normal;font-size:7.09523px;font-family:'Sinhala Sangam MN';-inkscape-font-specification:'Sinhala Sangam MN';fill:#ffffff;fill-opacity:1"
             d="m 46.401914,688.73336 h 2.033966 q 0.387872,0 0.690602,0.13717 0.30273,0.13718 0.506127,0.35476 0.208126,0.21759 0.31219,0.49194 0.108793,0.26962 0.108793,0.54397 0,0.29327 -0.108793,0.57235 -0.104064,0.27434 -0.31219,0.49193 -0.203397,0.21286 -0.506127,0.3453 -0.30273,0.12772 -0.690602,0.12772 h -1.461618 v 2.29885 h -0.572348 z m 0.572348,2.55901 h 1.461618 q 0.208126,0 0.397333,-0.0804 0.189206,-0.0804 0.33111,-0.22232 0.141905,-0.1419 0.227048,-0.33111 0.08514,-0.18921 0.08514,-0.40679 0,-0.21286 -0.08041,-0.39734 -0.08041,-0.18447 -0.222317,-0.31692 -0.137175,-0.13244 -0.326381,-0.20812 -0.189206,-0.0757 -0.411523,-0.0757 h -1.461618 z"
             inkscape:connector-curvature="0" /><path
             id="path41192"
             style="font-style:normal;font-variant:normal;font-weight:normal;font-stretch:normal;font-size:7.09523px;font-family:'Sinhala Sangam MN';-inkscape-font-specification:'Sinhala Sangam MN';fill:#ffffff;fill-opacity:1"
             d="m 50.826635,690.24701 h 0.562888 l -0.02365,0.58654 q 0.179746,-0.32166 0.420984,-0.48721 0.245968,-0.17029 0.572349,-0.17029 0.06149,0 0.132444,0.0142 0.07568,0.009 0.132444,0.0331 v 0.5818 q -0.184476,-0.0662 -0.279079,-0.0662 -0.227047,0 -0.406793,0.0851 -0.175016,0.0851 -0.298,0.23178 -0.122984,0.14191 -0.189206,0.33111 -0.06149,0.18448 -0.06149,0.38788 v 2.3225 h -0.562888 v -3.85034 z"
             inkscape:connector-curvature="0" /><path
             id="path41194"
             style="font-style:normal;font-variant:normal;font-weight:normal;font-stretch:normal;font-size:7.09523px;font-family:'Sinhala Sangam MN';-inkscape-font-specification:'Sinhala Sangam MN';fill:#ffffff;fill-opacity:1"
             d="m 53.693662,692.27624 q 0.0047,0.26962 0.0946,0.52505 0.08987,0.2507 0.245968,0.44463 0.156095,0.19394 0.368952,0.31219 0.212857,0.11826 0.458825,0.11826 0.832507,0 1.102126,-0.77102 h 0.520316 q -0.06622,0.30273 -0.222317,0.53924 -0.151365,0.23178 -0.368952,0.39733 -0.217587,0.16083 -0.482475,0.24597 -0.264889,0.0851 -0.548698,0.0851 -0.406793,0 -0.733174,-0.16555 -0.32165,-0.16556 -0.553428,-0.44464 -0.231777,-0.28381 -0.354761,-0.65749 -0.122984,-0.37368 -0.122984,-0.78993 0,-0.38788 0.122984,-0.73791 0.122984,-0.35476 0.350031,-0.61965 0.231777,-0.26489 0.553428,-0.42098 0.32638,-0.16083 0.733174,-0.16083 0.387872,0 0.704792,0.14191 0.316921,0.1419 0.534508,0.3926 0.222317,0.2507 0.340571,0.596 0.122984,0.34057 0.122984,0.74263 v 0.22705 h -2.866473 z m 2.279934,-0.4399 q -0.0095,-0.24597 -0.0946,-0.4541 -0.08041,-0.21285 -0.231778,-0.36895 -0.146635,-0.15609 -0.359491,-0.24124 -0.208127,-0.0899 -0.468286,-0.0899 -0.241237,0 -0.444634,0.0946 -0.203397,0.0946 -0.354762,0.25543 -0.146634,0.16083 -0.236507,0.36895 -0.08514,0.20813 -0.08987,0.43518 h 2.279934 z"
             inkscape:connector-curvature="0" /><path
             id="path41196"
             style="font-style:normal;font-variant:normal;font-weight:normal;font-stretch:normal;font-size:7.09523px;font-family:'Sinhala Sangam MN';-inkscape-font-specification:'Sinhala Sangam MN';fill:#ffffff;fill-opacity:1"
             d="m 60.566797,694.19195 q 0,0.39734 -0.137174,0.70007 -0.137175,0.30273 -0.364222,0.50612 -0.227047,0.2034 -0.520317,0.30746 -0.293269,0.10407 -0.60546,0.10407 -0.543967,0 -0.95076,-0.27908 -0.402063,-0.27908 -0.61492,-0.894 h 0.572348 q 0.156095,0.35476 0.397333,0.51086 0.245968,0.15609 0.595999,0.15609 0.212857,0 0.402063,-0.0804 0.193937,-0.0804 0.335841,-0.22705 0.146635,-0.1419 0.227048,-0.34057 0.08514,-0.19867 0.08514,-0.43517 v -0.67169 q -0.198666,0.31219 -0.487205,0.47302 -0.28381,0.16082 -0.581809,0.16082 -0.392603,0 -0.704793,-0.15609 -0.31219,-0.16083 -0.534507,-0.43518 -0.217587,-0.27434 -0.335841,-0.63857 -0.118254,-0.36895 -0.118254,-0.7852 0,-0.41626 0.113524,-0.77575 0.118253,-0.36422 0.33111,-0.63384 0.217587,-0.26962 0.520317,-0.42571 0.30273,-0.1561 0.676412,-0.1561 0.127714,0 0.274349,0.0284 0.146635,0.0284 0.29327,0.0993 0.146634,0.071 0.288539,0.1892 0.141904,0.11826 0.264888,0.30273 V 690.247 h 0.577079 v 3.94494 z m -0.577079,-2.0718 q -0.0047,-0.298 -0.08041,-0.55816 -0.07095,-0.26489 -0.203397,-0.45883 -0.132444,-0.19393 -0.32638,-0.30746 -0.189206,-0.11352 -0.430444,-0.11352 -0.250698,0 -0.463555,0.11825 -0.212857,0.11353 -0.368952,0.31692 -0.151365,0.19867 -0.241238,0.46829 -0.08514,0.26962 -0.08514,0.58181 0,0.31219 0.08514,0.58654 0.08987,0.27435 0.241238,0.48247 0.156095,0.2034 0.368952,0.32165 0.212857,0.11826 0.463555,0.11826 0.245968,0 0.439904,-0.11826 0.193936,-0.11825 0.326381,-0.31692 0.137174,-0.20339 0.203396,-0.47301 0.07095,-0.27435 0.07095,-0.58654 v -0.0615 z"
             inkscape:connector-curvature="0" /><path
             id="path41198"
             style="font-style:normal;font-variant:normal;font-weight:normal;font-stretch:normal;font-size:7.09523px;font-family:'Sinhala Sangam MN';-inkscape-font-specification:'Sinhala Sangam MN';fill:#ffffff;fill-opacity:1"
             d="m 61.40019,690.24701 h 0.572348 v 0.58181 q 0.298,-0.34531 0.643301,-0.49667 0.350032,-0.1561 0.714253,-0.1561 0.548698,0 0.851428,0.30746 0.30273,0.30746 0.30273,0.8467 v 2.76714 h -0.562888 v -2.69619 q 0,-0.39733 -0.189206,-0.55815 -0.184476,-0.16083 -0.510857,-0.16083 -0.260158,0 -0.487206,0.0946 -0.227047,0.0899 -0.397333,0.24124 -0.170285,0.15137 -0.269618,0.35003 -0.0946,0.19867 -0.0946,0.41153 v 2.31777 h -0.572348 v -3.85034 z"
             inkscape:connector-curvature="0" /><path
             id="path41200"
             style="font-style:normal;font-variant:normal;font-weight:normal;font-stretch:normal;font-size:7.09523px;font-family:'Sinhala Sangam MN';-inkscape-font-specification:'Sinhala Sangam MN';fill:#ffffff;fill-opacity:1"
             d="m 68.591173,694.14465 q -0.05203,0.0189 -0.104064,0.0237 -0.0473,0.005 -0.104063,0.005 -0.241238,0 -0.402063,-0.17974 -0.160825,-0.17975 -0.184476,-0.56289 -0.184476,0.24124 -0.364222,0.38787 -0.175016,0.14191 -0.354761,0.22232 -0.175016,0.0804 -0.354762,0.10406 -0.179746,0.0284 -0.364222,0.0284 -0.236507,0 -0.444634,-0.0757 -0.208127,-0.0757 -0.364222,-0.21759 -0.151365,-0.1419 -0.241238,-0.34057 -0.08514,-0.20339 -0.08514,-0.44936 0,-0.24597 0.108794,-0.42099 0.108793,-0.17501 0.283809,-0.29799 0.179746,-0.12772 0.402063,-0.21286 0.227048,-0.0899 0.463555,-0.1561 0.236508,-0.071 0.458825,-0.12771 0.227047,-0.0615 0.402063,-0.13718 0.179746,-0.0757 0.28854,-0.17501 0.108793,-0.0993 0.108793,-0.24597 0,-0.34057 -0.241238,-0.4872 -0.241238,-0.14664 -0.685872,-0.14664 -0.170286,0 -0.326381,0.0331 -0.151365,0.0331 -0.269618,0.10406 -0.118254,0.071 -0.198667,0.18448 -0.07568,0.11352 -0.09933,0.27435 h -0.595999 q 0.01892,-0.28381 0.156095,-0.49194 0.141904,-0.20812 0.354761,-0.34057 0.212857,-0.13717 0.473016,-0.20339 0.260158,-0.0662 0.520316,-0.0662 0.28381,0 0.553428,0.0615 0.269619,0.0615 0.473016,0.19866 0.208126,0.13718 0.33111,0.35476 0.127715,0.21759 0.127715,0.52505 v 2.02924 q 0,0.0615 0.01892,0.12298 0.02365,0.0568 0.06149,0.10406 0.04257,0.0473 0.08987,0.0757 0.05203,0.0284 0.108794,0.0284 v 0.46828 z m -0.851428,-2.22317 q -0.118254,0.12298 -0.31219,0.20813 -0.189206,0.0804 -0.406793,0.14663 -0.212857,0.0662 -0.435174,0.12772 -0.222318,0.0615 -0.402063,0.14663 -0.175016,0.0851 -0.28854,0.20813 -0.108793,0.11825 -0.108793,0.30273 0,0.16555 0.05676,0.28381 0.05676,0.11352 0.151364,0.1892 0.0946,0.0757 0.212857,0.1088 0.118254,0.0331 0.241238,0.0331 0.354762,0 0.695333,-0.21286 0.340571,-0.21759 0.595999,-0.66222 v -0.87981 z"
             inkscape:connector-curvature="0" /><path
             id="path41202"
             style="font-style:normal;font-variant:normal;font-weight:normal;font-stretch:normal;font-size:7.09523px;font-family:'Sinhala Sangam MN';-inkscape-font-specification:'Sinhala Sangam MN';fill:#ffffff;fill-opacity:1"
             d="m 69.285322,690.24701 h 0.572348 v 0.58181 q 0.298,-0.34531 0.643301,-0.49667 0.350031,-0.1561 0.714253,-0.1561 0.548698,0 0.851428,0.30746 0.30273,0.30746 0.30273,0.8467 v 2.76714 h -0.562889 v -2.69619 q 0,-0.39733 -0.189206,-0.55815 -0.184476,-0.16083 -0.510856,-0.16083 -0.260159,0 -0.487206,0.0946 -0.227047,0.0899 -0.397333,0.24124 -0.170285,0.15137 -0.269619,0.35003 -0.0946,0.19867 -0.0946,0.41153 v 2.31777 h -0.572348 v -3.85034 z"
             inkscape:connector-curvature="0" /><path
             id="path41204"
             style="font-style:normal;font-variant:normal;font-weight:normal;font-stretch:normal;font-size:7.09523px;font-family:'Sinhala Sangam MN';-inkscape-font-specification:'Sinhala Sangam MN';fill:#ffffff;fill-opacity:1"
             d="m 74.205823,689.09758 v 1.14943 h 0.596 v 0.4872 h -0.596 v 2.49752 q 0,0.25543 0.118254,0.35003 0.118254,0.0946 0.30746,0.0946 0.05676,0 0.118254,-0.005 0.06622,-0.005 0.146635,-0.0236 v 0.46355 q -0.104064,0.0284 -0.231778,0.0426 -0.127714,0.0189 -0.255428,0.0189 -0.156095,0 -0.298,-0.0426 -0.137174,-0.0378 -0.245968,-0.12298 -0.104063,-0.0899 -0.170285,-0.23178 -0.06149,-0.1419 -0.06149,-0.3453 v -2.69619 h -0.596 v -0.4872 h 0.596 v -1.14943 h 0.572348 z"
             inkscape:connector-curvature="0" /></g><rect
           ry="4.5818453"
           y="557.02301"
           x="-14.322511"
           height="9.1636906"
           width="23.563774"
           id="rect41075"
           style="opacity:1;fill:#ffffff;fill-opacity:1;stroke:#b7afaf;stroke-width:1.77165;stroke-linecap:round;stroke-linejoin:round;stroke-miterlimit:4;stroke-dasharray:none;stroke-opacity:1" /><rect
           style="opacity:1;fill:#ffffff;fill-opacity:1;stroke:#b7afaf;stroke-width:1.77165;stroke-linecap:round;stroke-linejoin:round;stroke-miterlimit:4;stroke-dasharray:none;stroke-opacity:1"
           id="rect41077"
           width="23.563774"
           height="9.1636906"
           x="53.67749"
           y="557.02301"
           ry="4.5818453" /><path
           inkscape:connector-curvature="0"
           id="path41079"
           d="m -6.46792,557.38661 v 8.50914"
           style="fill:none;fill-rule:evenodd;stroke:#c99292;stroke-width:1.70787;stroke-linecap:butt;stroke-linejoin:miter;stroke-miterlimit:4;stroke-dasharray:none;stroke-opacity:1" /><path
           style="fill:none;fill-rule:evenodd;stroke:#c99292;stroke-width:1.70787;stroke-linecap:butt;stroke-linejoin:miter;stroke-miterlimit:4;stroke-dasharray:none;stroke-opacity:1"
           d="m 0.10273487,557.38661 v 8.50914"
           id="path41081"
           inkscape:connector-curvature="0" /><path
           inkscape:connector-curvature="0"
           id="path41083"
           d="m 69.188478,557.19888 v 8.50914"
           style="fill:none;fill-rule:evenodd;stroke:#c99292;stroke-width:1.70787;stroke-linecap:butt;stroke-linejoin:miter;stroke-miterlimit:4;stroke-dasharray:none;stroke-opacity:1" /><rect
           ry="1.5493053"
           y="539.37683"
           x="155.85493"
           height="36.021351"
           width="5.9840708"
           id="rect41085"
           style="opacity:0.891;fill:#a34545;fill-opacity:1;stroke:#a34545;stroke-width:1.73126;stroke-linecap:round;stroke-linejoin:round;stroke-miterlimit:4;stroke-dasharray:none;stroke-opacity:0.956863" /><ellipse
           transform="matrix(0,1,1,0,0,0)"
           id="ellipse41089"
           style="fill:none;stroke:#babdb6;stroke-width:2.48031;stroke-linecap:round;stroke-linejoin:round;stroke-miterlimit:4;stroke-dasharray:none"
           cx="556.88629"
           cy="170.62839"
           rx="19.22176"
           ry="41.306183" /></g></g></g></svg>
